<svg width="728" height="230" viewBox="0 0 728 230" fill="none" xmlns="http://www.w3.org/2000/svg">
<rect width="728" height="230" fill="#FF702E"/>
<rect x="290" y="23" width="413" height="184" fill="#203958"/>
<path d="M156.24 70.656V160H138.32V101.888L114.384 160H100.816L76.752 101.888V160H58.832V70.656H79.184L107.6 137.088L136.016 70.656H156.24ZM220.037 160L200.325 125.184H191.877V160H173.957V70.656H207.493C214.405 70.656 220.293 71.8933 225.157 74.368C230.021 76.7573 233.648 80.0427 236.037 84.224C238.512 88.32 239.749 92.928 239.749 98.048C239.749 103.936 238.042 109.269 234.629 114.048C231.216 118.741 226.138 121.984 219.397 123.776L240.773 160H220.037ZM191.877 111.744H206.853C211.717 111.744 215.344 110.592 217.733 108.288C220.122 105.899 221.317 102.613 221.317 98.432C221.317 94.336 220.122 91.1787 217.733 88.96C215.344 86.656 211.717 85.504 206.853 85.504H191.877V111.744ZM263.893 160.896C260.65 160.896 257.962 159.915 255.829 157.952C253.781 155.904 252.757 153.387 252.757 150.4C252.757 147.413 253.781 144.939 255.829 142.976C257.962 140.928 260.65 139.904 263.893 139.904C267.05 139.904 269.653 140.928 271.701 142.976C273.749 144.939 274.773 147.413 274.773 150.4C274.773 153.387 273.749 155.904 271.701 157.952C269.653 159.915 267.05 160.896 263.893 160.896ZM417.115 70.656V160H399.195V101.888L375.259 160H361.691L337.627 101.888V160H319.707V70.656H340.059L368.475 137.088L396.891 70.656H417.115ZM452.752 85.12V107.52H482.832V121.728H452.752V145.408H486.672V160H434.832V70.528H486.672V85.12H452.752ZM498.605 115.2C498.605 106.411 500.568 98.56 504.493 91.648C508.504 84.6507 513.922 79.232 520.749 75.392C527.661 71.4667 535.384 69.504 543.917 69.504C553.901 69.504 562.648 72.064 570.157 77.184C577.666 82.304 582.914 89.3867 585.901 98.432H565.293C563.245 94.1653 560.344 90.9653 556.589 88.832C552.92 86.6987 548.653 85.632 543.789 85.632C538.584 85.632 533.933 86.8693 529.837 89.344C525.826 91.7333 522.669 95.1467 520.365 99.584C518.146 104.021 517.037 109.227 517.037 115.2C517.037 121.088 518.146 126.293 520.365 130.816C522.669 135.253 525.826 138.709 529.837 141.184C533.933 143.573 538.584 144.768 543.789 144.768C548.653 144.768 552.92 143.701 556.589 141.568C560.344 139.349 563.245 136.107 565.293 131.84H585.901C582.914 140.971 577.666 148.096 570.157 153.216C562.733 158.251 553.986 160.768 543.917 160.768C535.384 160.768 527.661 158.848 520.749 155.008C513.922 151.083 508.504 145.664 504.493 138.752C500.568 131.84 498.605 123.989 498.605 115.2ZM675.319 70.656V160H657.399V121.984H619.127V160H601.207V70.656H619.127V107.392H657.399V70.656H675.319Z" fill="white"/>
</svg>
